<svg xmlns="http://www.w3.org/2000/svg" xmlns:xlink="http://www.w3.org/1999/xlink" width="500" zoomAndPan="magnify" viewBox="0 0 375 85.499998" height="114" preserveAspectRatio="xMidYMid meet" version="1.0"><defs><g/><clipPath id="0340436aa3"><path d="M 10.628906 55.21875 L 80.167969 55.21875 L 80.167969 78.773438 L 10.628906 78.773438 Z M 10.628906 55.21875 " clip-rule="nonzero"/></clipPath><clipPath id="e76d7fc6bf"><path d="M 10.628906 4.691406 L 80.167969 4.691406 L 80.167969 28 L 10.628906 28 Z M 10.628906 4.691406 " clip-rule="nonzero"/></clipPath><clipPath id="81397ecc9b"><path d="M 11.066406 29.9375 L 80.167969 29.9375 L 80.167969 53.492188 L 11.066406 53.492188 Z M 11.066406 29.9375 " clip-rule="nonzero"/></clipPath><clipPath id="cfa91f60f5"><path d="M 6 14 L 36 14 L 36 44 L 6 44 Z M 6 14 " clip-rule="nonzero"/></clipPath><clipPath id="d1b683c6d0"><path d="M 35.808594 28.941406 L 18.359375 46.390625 L 0.914062 28.941406 L 18.359375 11.496094 Z M 35.808594 28.941406 " clip-rule="nonzero"/></clipPath><clipPath id="536ef5e931"><path d="M 18.421875 46.328125 L 35.871094 28.878906 L 18.421875 11.433594 L 0.972656 28.878906 Z M 18.421875 46.328125 " clip-rule="nonzero"/></clipPath><clipPath id="b325d85114"><path d="M 18.417969 46.324219 L 35.804688 28.9375 L 18.488281 11.625 L 1.101562 29.007812 Z M 18.417969 46.324219 " clip-rule="nonzero"/></clipPath><clipPath id="d56c71cebd"><path d="M 56 39 L 86 39 L 86 69 L 56 69 Z M 56 39 " clip-rule="nonzero"/></clipPath><clipPath id="26c06226a8"><path d="M 73.460938 71.441406 L 55.699219 54.308594 L 72.832031 36.550781 L 90.589844 53.679688 Z M 73.460938 71.441406 " clip-rule="nonzero"/></clipPath><clipPath id="2b68a19102"><path d="M 73.460938 71.441406 L 55.699219 54.308594 L 72.832031 36.550781 L 90.589844 53.679688 Z M 73.460938 71.441406 " clip-rule="nonzero"/></clipPath><clipPath id="8653d1d740"><path d="M 73.464844 71.433594 L 55.769531 54.367188 L 72.769531 36.742188 L 90.464844 53.8125 Z M 73.464844 71.433594 " clip-rule="nonzero"/></clipPath></defs><g clip-path="url(#0340436aa3)"><path fill="#ffffff" d="M 80.558594 55.21875 L 33.847656 55.21875 C 21.050781 55.21875 10.679688 65.589844 10.679688 78.386719 L 57.390625 78.386719 C 70.1875 78.386719 80.558594 68.015625 80.558594 55.21875 Z M 80.558594 55.21875 " fill-opacity="1" fill-rule="nonzero"/></g><g clip-path="url(#e76d7fc6bf)"><path fill="#ffffff" d="M 80.558594 4.691406 L 33.847656 4.691406 C 21.050781 4.691406 10.679688 15.0625 10.679688 27.859375 L 57.390625 27.859375 C 70.1875 27.859375 80.558594 17.488281 80.558594 4.691406 Z M 80.558594 4.691406 " fill-opacity="1" fill-rule="nonzero"/></g><g clip-path="url(#81397ecc9b)"><path fill="#ffffff" d="M 10.679688 29.9375 L 57.390625 29.9375 C 70.1875 29.9375 80.558594 40.308594 80.558594 53.105469 L 33.847656 53.105469 C 21.050781 53.105469 10.679688 42.734375 10.679688 29.9375 Z M 10.679688 29.9375 " fill-opacity="1" fill-rule="nonzero"/></g><g clip-path="url(#cfa91f60f5)"><g clip-path="url(#d1b683c6d0)"><g clip-path="url(#536ef5e931)"><g clip-path="url(#b325d85114)"><path fill="#222b48" d="M 6.738281 23.851562 C 6.792969 24.058594 7.046875 25 7.300781 25.949219 C 7.554688 26.898438 7.796875 27.777344 7.835938 27.90625 C 7.878906 28.03125 7.898438 28.152344 7.878906 28.171875 C 7.863281 28.1875 7.601562 28.324219 7.300781 28.46875 C 6.464844 28.878906 6.464844 29.078125 7.304688 29.457031 C 7.589844 29.585938 7.84375 29.710938 7.863281 29.730469 C 7.886719 29.753906 7.613281 30.839844 7.257812 32.144531 L 6.613281 34.519531 L 7.320312 34.511719 C 8.269531 34.503906 8.105469 34.679688 9.597656 32.042969 C 10.089844 31.164062 10.539062 30.425781 10.59375 30.402344 C 10.648438 30.378906 11.199219 30.441406 11.820312 30.546875 C 13.648438 30.855469 14.261719 30.898438 16.804688 30.921875 C 18.132812 30.933594 19.992188 30.960938 20.019531 30.976562 C 20.042969 30.988281 19.324219 33.761719 18.417969 37.132812 C 17.507812 40.507812 16.773438 43.214844 16.785156 43.257812 C 16.796875 43.304688 17.203125 43.335938 17.691406 43.332031 C 18.421875 43.324219 18.613281 43.289062 18.757812 43.144531 C 18.855469 43.046875 19.226562 42.445312 19.585938 41.804688 C 19.949219 41.164062 20.929688 39.515625 21.769531 38.023438 L 23.300781 35.3125 L 24.207031 35.300781 C 24.703125 35.292969 25.199219 35.238281 25.304688 35.175781 C 25.730469 34.917969 25.929688 34.324219 25.757812 33.832031 C 25.601562 33.398438 25.367188 33.210938 24.9375 33.183594 C 24.730469 33.167969 24.5625 33.140625 24.5625 33.117188 C 24.5625 33.09375 24.824219 32.605469 25.144531 32.03125 L 25.726562 30.992188 L 28.933594 31.003906 C 32.464844 31.019531 32.753906 30.984375 33.953125 30.363281 C 34.792969 29.933594 35.289062 29.550781 35.464844 29.199219 C 35.574219 28.980469 35.570312 28.882812 35.441406 28.640625 C 35.234375 28.265625 34.644531 27.835938 33.734375 27.414062 C 32.632812 26.898438 32.1875 26.847656 28.824219 26.878906 L 25.722656 26.90625 L 25.136719 25.863281 C 24.816406 25.292969 24.554688 24.804688 24.554688 24.78125 C 24.554688 24.757812 24.722656 24.726562 24.929688 24.710938 C 25.375 24.683594 25.59375 24.496094 25.746094 24.023438 C 25.878906 23.613281 25.777344 23.152344 25.488281 22.863281 C 25.285156 22.660156 25.183594 22.640625 24.289062 22.636719 L 23.316406 22.628906 L 22.136719 20.542969 C 21.484375 19.394531 20.492188 17.699219 19.929688 16.703125 C 19.363281 15.707031 18.824219 14.8125 18.730469 14.71875 C 18.589844 14.582031 18.386719 14.546875 17.628906 14.542969 L 16.699219 14.539062 L 18.144531 19.839844 C 18.945312 22.785156 19.695312 25.582031 19.828125 26.050781 C 19.957031 26.519531 20.046875 26.914062 20.019531 26.925781 C 19.992188 26.9375 18.058594 26.972656 16.636719 26.996094 C 14.257812 27.03125 12.996094 27.144531 11.050781 27.492188 C 10.808594 27.535156 10.574219 27.53125 10.53125 27.488281 C 10.488281 27.445312 9.992188 26.597656 9.429688 25.605469 C 8.863281 24.609375 8.320312 23.714844 8.222656 23.613281 C 8.074219 23.46875 7.902344 23.425781 7.382812 23.40625 C 7.023438 23.394531 6.710938 23.402344 6.683594 23.429688 C 6.65625 23.457031 6.679688 23.644531 6.738281 23.851562 Z M 6.738281 23.851562 " fill-opacity="1" fill-rule="nonzero"/></g></g></g></g><g clip-path="url(#d56c71cebd)"><g clip-path="url(#26c06226a8)"><g clip-path="url(#2b68a19102)"><g clip-path="url(#8653d1d740)"><path fill="#222b48" d="M 84.738281 48.753906 C 84.6875 48.960938 84.449219 49.910156 84.214844 50.863281 C 83.976562 51.816406 83.75 52.699219 83.710938 52.828125 C 83.671875 52.957031 83.65625 53.074219 83.671875 53.09375 C 83.691406 53.113281 83.957031 53.242188 84.257812 53.382812 C 85.101562 53.777344 85.105469 53.976562 84.269531 54.371094 C 83.988281 54.503906 83.738281 54.632812 83.71875 54.65625 C 83.695312 54.675781 83.988281 55.757812 84.367188 57.058594 L 85.054688 59.417969 L 84.347656 59.425781 C 83.398438 59.433594 83.566406 59.609375 82.027344 56.996094 C 81.515625 56.125 81.054688 55.394531 81 55.375 C 80.945312 55.351562 80.394531 55.425781 79.773438 55.542969 C 77.957031 55.882812 77.34375 55.9375 74.800781 56.003906 C 73.472656 56.042969 71.613281 56.105469 71.585938 56.117188 C 71.5625 56.132812 72.332031 58.890625 73.300781 62.246094 C 74.269531 65.605469 75.050781 68.296875 75.042969 68.339844 C 75.03125 68.386719 74.625 68.425781 74.136719 68.429688 C 73.40625 68.433594 73.214844 68.402344 73.070312 68.261719 C 72.96875 68.167969 72.585938 67.570312 72.214844 66.9375 C 71.84375 66.304688 70.832031 64.671875 69.960938 63.195312 L 68.386719 60.511719 L 67.480469 60.515625 C 66.980469 60.519531 66.484375 60.472656 66.378906 60.410156 C 65.949219 60.164062 65.734375 59.570312 65.902344 59.078125 C 66.050781 58.640625 66.28125 58.449219 66.710938 58.414062 C 66.917969 58.394531 67.085938 58.363281 67.085938 58.339844 C 67.082031 58.316406 66.8125 57.832031 66.484375 57.265625 L 65.882812 56.234375 L 62.675781 56.308594 C 59.144531 56.386719 58.855469 56.355469 57.644531 55.757812 C 56.796875 55.339844 56.296875 54.96875 56.113281 54.621094 C 56 54.40625 56.003906 54.304688 56.128906 54.0625 C 56.324219 53.683594 56.90625 53.246094 57.808594 52.804688 C 58.902344 52.265625 59.34375 52.210938 62.707031 52.179688 L 65.8125 52.152344 L 66.375 51.101562 C 66.6875 50.519531 66.941406 50.027344 66.941406 50.003906 C 66.941406 49.980469 66.769531 49.953125 66.5625 49.945312 C 66.121094 49.921875 65.894531 49.742188 65.734375 49.269531 C 65.59375 48.863281 65.691406 48.398438 65.972656 48.105469 C 66.171875 47.898438 66.273438 47.878906 67.164062 47.855469 L 68.140625 47.832031 L 69.285156 45.726562 C 69.914062 44.566406 70.875 42.851562 71.421875 41.84375 C 71.96875 40.839844 72.488281 39.9375 72.582031 39.839844 C 72.71875 39.699219 72.921875 39.664062 73.679688 39.644531 L 74.609375 39.621094 L 73.261719 44.949219 C 72.511719 47.910156 71.8125 50.71875 71.691406 51.191406 C 71.566406 51.664062 71.488281 52.058594 71.515625 52.070312 C 71.539062 52.082031 73.476562 52.082031 74.898438 52.078125 C 77.277344 52.070312 78.539062 52.160156 80.492188 52.472656 C 80.734375 52.511719 80.96875 52.503906 81.011719 52.460938 C 81.054688 52.417969 81.535156 51.558594 82.078125 50.554688 C 82.625 49.554688 83.152344 48.648438 83.25 48.546875 C 83.394531 48.398438 83.566406 48.351562 84.082031 48.324219 C 84.441406 48.300781 84.757812 48.308594 84.785156 48.332031 C 84.8125 48.359375 84.789062 48.546875 84.738281 48.753906 Z M 84.738281 48.753906 " fill-opacity="1" fill-rule="nonzero"/></g></g></g></g><g fill="#ffffff" fill-opacity="1"><g transform="translate(81.29444, 68.397596)"><g><path d="M 14.234375 0 L 4.484375 0 L 4.484375 -55.15625 L 14.234375 -55.15625 L 14.234375 -25.59375 L 29.0625 -40.546875 L 41.421875 -40.546875 L 23.484375 -22.984375 L 42.71875 0 L 30.71875 0 L 14.234375 -20.171875 Z M 14.234375 0 "/></g></g></g><g fill="#ffffff" fill-opacity="1"><g transform="translate(121.181922, 68.397596)"><g><path d="M 11.78125 14.59375 L 5.0625 14.59375 L 5.0625 6.359375 L 9.46875 6.359375 C 10.71875 6.359375 11.753906 6.175781 12.578125 5.8125 C 13.398438 5.457031 14.097656 4.53125 14.671875 3.03125 L 15.75 0.140625 L 0.796875 -40.546875 L 11.34375 -40.546875 L 20.8125 -10.765625 L 29.34375 -40.546875 L 39.828125 -40.546875 L 24.0625 4.765625 C 22.8125 8.378906 21.28125 10.921875 19.46875 12.390625 C 17.664062 13.859375 15.101562 14.59375 11.78125 14.59375 Z M 11.78125 14.59375 "/></g></g></g><g fill="#ffffff" fill-opacity="1"><g transform="translate(158.829275, 68.397596)"><g><path d="M 37.515625 -23.921875 L 47.421875 0 L 36.359375 0 L 27.609375 -22.046875 L 15.328125 -22.046875 L 15.328125 0 L 4.921875 0 L 4.921875 -55.15625 L 28.703125 -55.15625 C 32.171875 -55.15625 35.21875 -54.585938 37.84375 -53.453125 C 40.46875 -52.316406 42.515625 -50.554688 43.984375 -48.171875 C 45.453125 -45.785156 46.1875 -42.691406 46.1875 -38.890625 C 46.1875 -35.273438 45.414062 -32.1875 43.875 -29.625 C 42.332031 -27.070312 40.210938 -25.171875 37.515625 -23.921875 Z M 27.25 -45.828125 L 15.328125 -45.828125 L 15.328125 -31.15625 L 27.25 -31.15625 C 30.039062 -31.15625 32.171875 -31.78125 33.640625 -33.03125 C 35.109375 -34.28125 35.84375 -36.113281 35.84375 -38.53125 C 35.84375 -40.882812 35.097656 -42.6875 33.609375 -43.9375 C 32.117188 -45.195312 30 -45.828125 27.25 -45.828125 Z M 27.25 -45.828125 "/></g></g></g><g fill="#ffffff" fill-opacity="1"><g transform="translate(205.437163, 68.397596)"><g><path d="M 23.421875 0.796875 C 19.273438 0.796875 15.644531 -0.101562 12.53125 -1.90625 C 9.425781 -3.71875 7.019531 -6.1875 5.3125 -9.3125 C 3.601562 -12.445312 2.75 -16.015625 2.75 -20.015625 C 2.75 -22.671875 3.15625 -25.273438 3.96875 -27.828125 C 4.789062 -30.378906 6.046875 -32.675781 7.734375 -34.71875 C 9.421875 -36.769531 11.539062 -38.398438 14.09375 -39.609375 C 16.644531 -40.816406 19.65625 -41.421875 23.125 -41.421875 C 25.726562 -41.421875 28.242188 -41.007812 30.671875 -40.1875 C 33.109375 -39.363281 35.289062 -38.097656 37.21875 -36.390625 C 39.144531 -34.679688 40.675781 -32.5 41.8125 -29.84375 C 42.945312 -27.195312 43.515625 -24.046875 43.515625 -20.390625 L 43.515625 -18.28125 L 12.859375 -18.28125 C 12.960938 -17.414062 13.15625 -16.5625 13.4375 -15.71875 C 13.726562 -14.875 14.046875 -14.140625 14.390625 -13.515625 C 15.347656 -11.640625 16.632812 -10.179688 18.25 -9.140625 C 19.863281 -8.109375 21.707031 -7.59375 23.78125 -7.59375 C 26.09375 -7.59375 28.03125 -8.191406 29.59375 -9.390625 C 31.164062 -10.597656 32.265625 -12.019531 32.890625 -13.65625 L 42.859375 -13.65625 C 42.085938 -11.0625 40.859375 -8.664062 39.171875 -6.46875 C 37.484375 -4.28125 35.335938 -2.519531 32.734375 -1.1875 C 30.140625 0.132812 27.035156 0.796875 23.421875 0.796875 Z M 13.296875 -25.59375 L 33.53125 -25.59375 C 33.488281 -26.113281 33.359375 -26.710938 33.140625 -27.390625 C 32.921875 -28.066406 32.546875 -28.71875 32.015625 -29.34375 C 31.097656 -30.789062 29.878906 -31.875 28.359375 -32.59375 C 26.847656 -33.320312 25.203125 -33.6875 23.421875 -33.6875 C 21.640625 -33.6875 20.007812 -33.320312 18.53125 -32.59375 C 17.0625 -31.875 15.847656 -30.789062 14.890625 -29.34375 C 14.359375 -28.71875 13.984375 -28.066406 13.765625 -27.390625 C 13.546875 -26.710938 13.390625 -26.113281 13.296875 -25.59375 Z M 13.296875 -25.59375 "/></g></g></g><g fill="#ffffff" fill-opacity="1"><g transform="translate(248.5042, 68.397596)"><g><path d="M 16.125 0.796875 C 12.3125 0.796875 9.140625 -0.222656 6.609375 -2.265625 C 4.078125 -4.316406 2.8125 -7.269531 2.8125 -11.125 C 2.8125 -13.300781 3.234375 -15.144531 4.078125 -16.65625 C 4.921875 -18.175781 6.039062 -19.421875 7.4375 -20.390625 C 8.738281 -21.296875 10.222656 -22.015625 11.890625 -22.546875 C 13.554688 -23.078125 15.226562 -23.515625 16.90625 -23.859375 L 28.984375 -26.09375 C 28.890625 -28.601562 28.238281 -30.503906 27.03125 -31.796875 C 25.820312 -33.097656 24.015625 -33.75 21.609375 -33.75 C 19.773438 -33.75 18.144531 -33.207031 16.71875 -32.125 C 15.300781 -31.039062 14.398438 -29.535156 14.015625 -27.609375 L 4.34375 -27.609375 C 4.820312 -30.785156 5.925781 -33.382812 7.65625 -35.40625 C 9.394531 -37.4375 11.503906 -38.945312 13.984375 -39.9375 C 16.460938 -40.925781 19.03125 -41.421875 21.6875 -41.421875 C 24.039062 -41.421875 26.300781 -41.082031 28.46875 -40.40625 C 30.644531 -39.726562 32.476562 -38.691406 33.96875 -37.296875 C 35.5625 -35.898438 36.691406 -34.296875 37.359375 -32.484375 C 38.035156 -30.679688 38.4375 -28.800781 38.5625 -26.84375 C 38.6875 -24.894531 38.75 -22.984375 38.75 -21.109375 L 38.75 0 L 28.984375 0 L 28.984375 -5.5 C 27.972656 -3.707031 26.742188 -2.359375 25.296875 -1.453125 C 24.046875 -0.628906 22.632812 -0.0507812 21.0625 0.28125 C 19.5 0.625 17.851562 0.796875 16.125 0.796875 Z M 18.5 -6.859375 C 20.425781 -6.859375 22.160156 -7.242188 23.703125 -8.015625 C 25.828125 -9.078125 27.257812 -10.5 28 -12.28125 C 28.75 -14.070312 29.148438 -16.289062 29.203125 -18.9375 L 19.515625 -16.984375 C 18.117188 -16.742188 16.972656 -16.429688 16.078125 -16.046875 C 15.191406 -15.660156 14.457031 -15.203125 13.875 -14.671875 C 13.488281 -14.285156 13.175781 -13.828125 12.9375 -13.296875 C 12.695312 -12.765625 12.578125 -12.164062 12.578125 -11.5 C 12.578125 -10 13.140625 -8.847656 14.265625 -8.046875 C 15.398438 -7.253906 16.8125 -6.859375 18.5 -6.859375 Z M 18.5 -6.859375 "/></g></g></g><g fill="#ffffff" fill-opacity="1"><g transform="translate(288.030379, 68.397596)"><g><path d="M 20.75 0.796875 C 17.226562 0.796875 14.117188 -0.09375 11.421875 -1.875 C 8.722656 -3.65625 6.625 -6.132812 5.125 -9.3125 C 3.632812 -12.5 2.890625 -16.164062 2.890625 -20.3125 C 2.890625 -24.457031 3.632812 -28.117188 5.125 -31.296875 C 6.625 -34.472656 8.722656 -36.953125 11.421875 -38.734375 C 14.117188 -40.523438 17.226562 -41.421875 20.75 -41.421875 C 23.15625 -41.421875 25.257812 -41 27.0625 -40.15625 C 28.875 -39.3125 30.597656 -37.734375 32.234375 -35.421875 L 32.234375 -55.15625 L 42 -55.15625 L 42 0 L 32.234375 0 L 32.234375 -5.125 C 30.597656 -2.863281 28.875 -1.3125 27.0625 -0.46875 C 25.257812 0.375 23.15625 0.796875 20.75 0.796875 Z M 22.984375 -7.59375 C 26.117188 -7.59375 28.648438 -8.769531 30.578125 -11.125 C 32.503906 -13.488281 33.46875 -16.550781 33.46875 -20.3125 C 33.46875 -24.070312 32.503906 -27.128906 30.578125 -29.484375 C 28.648438 -31.847656 26.117188 -33.03125 22.984375 -33.03125 C 19.898438 -33.03125 17.414062 -31.835938 15.53125 -29.453125 C 13.65625 -27.066406 12.71875 -24.019531 12.71875 -20.3125 C 12.71875 -16.644531 13.65625 -13.609375 15.53125 -11.203125 C 17.414062 -8.796875 19.898438 -7.59375 22.984375 -7.59375 Z M 22.984375 -7.59375 "/></g></g></g><g fill="#ffffff" fill-opacity="1"><g transform="translate(331.314197, 68.397596)"><g><path d="M 11.78125 14.59375 L 5.0625 14.59375 L 5.0625 6.359375 L 9.46875 6.359375 C 10.71875 6.359375 11.753906 6.175781 12.578125 5.8125 C 13.398438 5.457031 14.097656 4.53125 14.671875 3.03125 L 15.75 0.140625 L 0.796875 -40.546875 L 11.34375 -40.546875 L 20.8125 -10.765625 L 29.34375 -40.546875 L 39.828125 -40.546875 L 24.0625 4.765625 C 22.8125 8.378906 21.28125 10.921875 19.46875 12.390625 C 17.664062 13.859375 15.101562 14.59375 11.78125 14.59375 Z M 11.78125 14.59375 "/></g></g></g></svg>